<svg version="1.1" id="Layer_1" xmlns="http://www.w3.org/2000/svg" xmlns:xlink="http://www.w3.org/1999/xlink" x="0px" y="0px"
	 width="100%" viewBox="0 0 370 385" enable-background="new 0 0 370 385" xml:space="preserve">
<path fill="#FFFEFD" opacity="1.000000" stroke="none" 
	d="
M163.000000,1.000000 
	C178.020889,1.000000 193.041794,1.000000 208.265320,1.366745 
	C209.516937,2.123738 210.536240,2.715596 211.619217,2.875095 
	C250.698212,8.630608 284.310150,25.558893 312.432465,53.085617 
	C344.266205,84.245163 362.908783,122.206421 369.151245,166.300156 
	C369.288300,167.267929 370.362793,168.103012 371.000000,169.000000 
	C371.000000,185.020889 371.000000,201.041794 370.633179,217.261719 
	C369.421936,221.631012 368.531830,225.792648 367.739685,229.972839 
	C351.452118,315.924530 284.339752,374.483246 211.209854,384.206696 
	C210.407944,384.313324 209.733795,385.380981 209.000000,386.000000 
	C193.979111,386.000000 178.958206,386.000000 163.737183,385.633850 
	C162.489822,384.876984 161.472397,384.284149 160.391052,384.124725 
	C121.132156,378.336914 87.404488,361.292267 59.216259,333.568726 
	C27.585266,302.459137 9.063338,264.616394 2.846442,220.704224 
	C2.709236,219.735092 1.636391,218.898453 1.000000,218.000000 
	C1.000000,201.979111 1.000000,185.958206 1.367102,169.737030 
	C2.577365,165.365448 3.464712,161.202515 4.257176,157.021606 
	C20.540981,71.111046 87.609184,12.532824 160.780350,2.790414 
	C161.585419,2.683223 162.262939,1.617999 163.000000,1.000000 
M117.385201,116.880798 
	C111.530853,124.513573 104.456245,131.504883 100.045097,139.896301 
	C85.301193,167.943848 83.888161,197.775330 92.684929,227.719360 
	C101.121170,256.436188 116.925262,279.206146 148.228668,287.085571 
	C149.419434,287.385315 150.784515,289.863678 150.830276,291.364594 
	C151.084076,299.690002 150.954605,308.027069 150.955963,316.360168 
	C150.956512,319.772430 150.956039,323.184723 150.956039,326.452606 
	C155.767838,326.452606 159.657166,326.452606 164.162598,326.452606 
	C164.162598,313.906311 164.162598,301.824402 164.162598,289.986938 
	C169.368164,289.986938 173.927902,289.986938 179.178223,289.986938 
	C179.178223,302.509216 179.178223,314.558258 179.178223,326.449097 
	C183.784515,326.449097 187.673920,326.449097 191.916885,326.449097 
	C191.916885,314.656921 191.806839,303.336212 192.036499,292.022430 
	C192.070633,290.340973 193.371613,287.576111 194.649368,287.193878 
	C217.460251,280.369507 233.095688,265.342682 244.056030,244.784973 
	C244.776031,243.434525 245.734482,242.211182 247.157196,240.058334 
	C247.999969,242.885818 248.402908,244.627258 249.031693,246.282928 
	C252.624741,255.743698 255.203415,265.786499 260.121399,274.506531 
	C270.507172,292.921478 293.130920,294.605042 305.937164,278.369476 
	C314.863068,267.053375 316.379089,253.249710 317.868256,239.527588 
	C310.368195,238.198441 310.534363,238.247070 308.743744,244.365433 
	C307.723419,247.851730 306.464355,251.393570 304.609100,254.488571 
	C296.184326,268.542969 279.361969,269.769653 269.801453,257.017059 
	C267.747131,254.276901 266.214661,250.960052 265.181091,247.676193 
	C262.485840,239.112503 260.057373,230.456116 257.849335,221.753784 
	C257.276093,219.494553 257.406891,216.788849 258.053223,214.528061 
	C268.343567,178.532761 278.775787,142.578018 289.149414,106.606468 
	C289.634644,104.923882 289.875732,103.170906 290.404877,100.605370 
	C279.797760,100.605370 269.858032,100.488174 259.929565,100.769432 
	C258.820892,100.800842 257.236053,102.928017 256.790283,104.367622 
	C254.034805,113.266518 251.597992,122.263390 248.946548,131.195419 
	C246.412888,139.730713 243.746826,148.226715 241.138962,156.739975 
	C240.610504,156.746994 240.082047,156.754013 239.553589,156.761017 
	C238.047211,153.510376 236.510941,150.273209 235.039322,147.006897 
	C226.123810,127.218468 215.352127,109.087868 194.170990,99.856506 
	C192.947159,99.323120 192.060013,96.679764 192.018982,94.993965 
	C191.804153,86.166031 191.928436,77.330170 191.896210,68.497192 
	C191.889832,66.749084 191.714340,65.001587 191.624405,63.389374 
	C187.062531,63.389374 183.166565,63.389374 178.680191,63.389374 
	C178.680191,74.377548 178.680191,84.939713 178.680191,95.601952 
	C173.492752,95.285118 168.919815,95.005814 163.798187,94.692993 
	C163.798187,84.005318 163.798187,73.752533 163.798187,63.263268 
	C159.311249,63.263268 155.411697,63.263268 150.947647,63.263268 
	C150.947647,73.516823 150.880524,83.472900 150.992203,93.426964 
	C151.022202,96.102425 150.376038,97.618546 147.534561,98.471359 
	C136.147919,101.888817 126.430168,108.190613 117.385201,116.880798 
z"/>
<path fill="#010101" opacity="1.000000" stroke="none" 
	d="
M371.000000,168.531342 
	C370.362793,168.103012 369.288300,167.267929 369.151245,166.300156 
	C362.908783,122.206421 344.266205,84.245163 312.432465,53.085617 
	C284.310150,25.558893 250.698212,8.630608 211.619217,2.875095 
	C210.536240,2.715596 209.516937,2.123738 208.733978,1.366745 
	C262.928345,1.000000 316.856659,1.000000 371.000000,1.000000 
	C371.000000,56.687378 371.000000,112.375031 371.000000,168.531342 
z"/>
<path fill="#010101" opacity="1.000000" stroke="none" 
	d="
M209.468658,386.000000 
	C209.733795,385.380981 210.407944,384.313324 211.209854,384.206696 
	C284.339752,374.483246 351.452118,315.924530 367.739685,229.972839 
	C368.531830,225.792648 369.421936,221.631012 370.633179,217.730377 
	C371.000000,273.925690 371.000000,329.851379 371.000000,386.000000 
	C317.312653,386.000000 263.624969,386.000000 209.468658,386.000000 
z"/>
<path fill="#010101" opacity="1.000000" stroke="none" 
	d="
M162.531342,1.000000 
	C162.262939,1.617999 161.585419,2.683223 160.780350,2.790414 
	C87.609184,12.532824 20.540981,71.111046 4.257176,157.021606 
	C3.464712,161.202515 2.577365,165.365448 1.367102,169.268372 
	C1.000000,113.074310 1.000000,57.148628 1.000000,1.000000 
	C54.687355,1.000000 108.375023,1.000000 162.531342,1.000000 
z"/>
<path fill="#010101" opacity="1.000000" stroke="none" 
	d="
M1.000000,218.468658 
	C1.636391,218.898453 2.709236,219.735092 2.846442,220.704224 
	C9.063338,264.616394 27.585266,302.459137 59.216259,333.568726 
	C87.404488,361.292267 121.132156,378.336914 160.391052,384.124725 
	C161.472397,384.284149 162.489822,384.876984 163.268524,385.633850 
	C109.071663,386.000000 55.143318,386.000000 1.000000,386.000000 
	C1.000000,330.312622 1.000000,274.624969 1.000000,218.468658 
z"/>
<path fill="#DD8C11" opacity="1.000000" stroke="none" 
	d="
M117.636055,116.629715 
	C126.430168,108.190613 136.147919,101.888817 147.534561,98.471359 
	C150.376038,97.618546 151.022202,96.102425 150.992203,93.426964 
	C150.880524,83.472900 150.947647,73.516823 150.947647,63.263268 
	C155.411697,63.263268 159.311249,63.263268 163.798187,63.263268 
	C163.798187,73.752533 163.798187,84.005318 163.798187,94.692993 
	C168.919815,95.005814 173.492752,95.285118 178.680191,95.601952 
	C178.680191,84.939713 178.680191,74.377548 178.680191,63.389374 
	C183.166565,63.389374 187.062531,63.389374 191.624405,63.389374 
	C191.714340,65.001587 191.889832,66.749084 191.896210,68.497192 
	C191.928436,77.330170 191.804153,86.166031 192.018982,94.993965 
	C192.060013,96.679764 192.947159,99.323120 194.170990,99.856506 
	C215.352127,109.087868 226.123810,127.218468 235.039322,147.006897 
	C236.510941,150.273209 238.047211,153.510376 239.553589,156.761017 
	C240.082047,156.754013 240.610504,156.746994 241.138962,156.739975 
	C243.746826,148.226715 246.412888,139.730713 248.946548,131.195419 
	C251.597992,122.263390 254.034805,113.266518 256.790283,104.367622 
	C257.236053,102.928017 258.820892,100.800842 259.929565,100.769432 
	C269.858032,100.488174 279.797760,100.605370 290.404877,100.605370 
	C289.875732,103.170906 289.634644,104.923882 289.149414,106.606468 
	C278.775787,142.578018 268.343567,178.532761 258.053223,214.528061 
	C257.406891,216.788849 257.276093,219.494553 257.849335,221.753784 
	C260.057373,230.456116 262.485840,239.112503 265.181091,247.676193 
	C266.214661,250.960052 267.747131,254.276901 269.801453,257.017059 
	C279.361969,269.769653 296.184326,268.542969 304.609100,254.488571 
	C306.464355,251.393570 307.723419,247.851730 308.743744,244.365433 
	C310.534363,238.247070 310.368195,238.198441 317.868256,239.527588 
	C316.379089,253.249710 314.863068,267.053375 305.937164,278.369476 
	C293.130920,294.605042 270.507172,292.921478 260.121399,274.506531 
	C255.203415,265.786499 252.624741,255.743698 249.031693,246.282928 
	C248.402908,244.627258 247.999969,242.885818 247.157196,240.058334 
	C245.734482,242.211182 244.776031,243.434525 244.056030,244.784973 
	C233.095688,265.342682 217.460251,280.369507 194.649368,287.193878 
	C193.371613,287.576111 192.070633,290.340973 192.036499,292.022430 
	C191.806839,303.336212 191.916885,314.656921 191.916885,326.449097 
	C187.673920,326.449097 183.784515,326.449097 179.178223,326.449097 
	C179.178223,314.558258 179.178223,302.509216 179.178223,289.986938 
	C173.927902,289.986938 169.368164,289.986938 164.162598,289.986938 
	C164.162598,301.824402 164.162598,313.906311 164.162598,326.452606 
	C159.657166,326.452606 155.767838,326.452606 150.956039,326.452606 
	C150.956039,323.184723 150.956512,319.772430 150.955963,316.360168 
	C150.954605,308.027069 151.084076,299.690002 150.830276,291.364594 
	C150.784515,289.863678 149.419434,287.385315 148.228668,287.085571 
	C116.925262,279.206146 101.121170,256.436188 92.684929,227.719360 
	C83.888161,197.775330 85.301193,167.943848 100.045097,139.896301 
	C104.456245,131.504883 111.530853,124.513573 117.636055,116.629715 
M232.972626,180.867920 
	C230.279312,172.660629 227.959335,164.307205 224.816208,156.275955 
	C217.924774,138.667114 207.995712,123.257011 190.500092,114.380104 
	C173.683990,105.847946 156.795410,108.090858 144.345413,123.174385 
	C137.633713,131.305771 133.465332,140.647537 131.017227,150.786133 
	C125.206131,174.852173 124.854126,199.255493 127.343330,223.710953 
	C128.493240,235.008484 131.523911,245.897842 137.872604,255.637512 
	C147.671188,270.669708 164.278625,278.562195 179.527954,274.889984 
	C191.227432,272.072632 199.266525,264.220032 205.675858,254.544800 
	C215.046249,240.399704 220.891205,224.636932 225.915390,208.583069 
	C228.681519,199.744385 230.732346,190.681839 232.972626,180.867920 
z"/>
<path fill="#FFFEFB" opacity="1.000000" stroke="none" 
	d="
M233.039139,181.294067 
	C230.732346,190.681839 228.681519,199.744385 225.915390,208.583069 
	C220.891205,224.636932 215.046249,240.399704 205.675858,254.544800 
	C199.266525,264.220032 191.227432,272.072632 179.527954,274.889984 
	C164.278625,278.562195 147.671188,270.669708 137.872604,255.637512 
	C131.523911,245.897842 128.493240,235.008484 127.343330,223.710953 
	C124.854126,199.255493 125.206131,174.852173 131.017227,150.786133 
	C133.465332,140.647537 137.633713,131.305771 144.345413,123.174385 
	C156.795410,108.090858 173.683990,105.847946 190.500092,114.380104 
	C207.995712,123.257011 217.924774,138.667114 224.816208,156.275955 
	C227.959335,164.307205 230.279312,172.660629 233.039139,181.294067 
z"/>
</svg>